<svg width="179" height="80" viewBox="0 0 179 80" fill="none" xmlns="http://www.w3.org/2000/svg">
<path d="M54.6328 80H0.240234V73.4395H54.6328V80Z" fill="#FAFAFA"/>
<path d="M36.708 65.7539H54.6328V70.4395H0.240234V65.7539H18.165V60.4395H36.708V65.7539Z" fill="#FAFAFA"/>
<path d="M36.708 57.4395H18.165V47.4395H36.708V57.4395Z" fill="#FAFAFA"/>
<path d="M36.708 44.4395H18.165V34.4395H36.708V44.4395Z" fill="#FAFAFA"/>
<path d="M36.708 31.4395H18.165V21.4395H36.708V31.4395Z" fill="#FAFAFA"/>
<path d="M54.6328 14.2461H36.708V18.4395H18.165V14.2461H0.240234V8.43945H54.6328V14.2461Z" fill="#FAFAFA"/>
<path d="M54.6328 5.43945H0.240234V0H54.6328V5.43945Z" fill="#FAFAFA"/>
<path d="M135.317 80H119V73.4395H135.317V80Z" fill="#FAFAFA"/>
<path d="M178.337 80H156.704L154.255 73.4395H178.337V80Z" fill="#FAFAFA"/>
<path d="M135.317 70.4395H119V60.4395H135.317V70.4395Z" fill="#FAFAFA"/>
<path d="M163.997 61.918C163.953 61.4378 163.906 60.945 163.859 60.4395H178.337V70.4395H153.135L149.401 60.4395H163.439L163.997 61.918Z" fill="#FAFAFA"/>
<path d="M135.317 57.4395H119V47.4395H135.317V57.4395Z" fill="#FAFAFA"/>
<path d="M162.307 57.4395H148.281L144.548 47.4395H158.533L162.307 57.4395Z" fill="#FAFAFA"/>
<path d="M178.337 57.4395H163.581C163.44 55.9226 163.292 54.3099 163.132 52.6025C162.973 50.873 162.823 49.152 162.683 47.4395H178.337V57.4395Z" fill="#FAFAFA"/>
<path d="M134.947 36.1641C135.179 39.2427 135.3 42.0014 135.314 44.4395H119V34.4395H134.854C134.886 35.0132 134.918 35.588 134.947 36.1641Z" fill="#FAFAFA"/>
<path d="M157.401 44.4395H143.428L139.694 34.4395H153.628L157.401 44.4395Z" fill="#FAFAFA"/>
<path d="M178.337 44.4395H162.447C162.385 43.6152 162.324 42.7929 162.267 41.9727C162.135 39.1116 162.059 36.6005 162.032 34.4395H178.337V44.4395Z" fill="#FAFAFA"/>
<path d="M133.914 21.4395C134.052 22.9602 134.191 24.6175 134.329 26.4111C134.457 28.0774 134.574 29.7535 134.68 31.4395H119V21.4395H133.914Z" fill="#FAFAFA"/>
<path d="M152.496 31.4395H138.574L134.841 21.4395H148.723L152.496 31.4395Z" fill="#FAFAFA"/>
<path d="M178.337 31.4395H162.02V21.4395H178.337V31.4395Z" fill="#FAFAFA"/>
<path d="M147.591 18.4395H133.721L133.587 18.082C133.599 18.2 133.611 18.3193 133.623 18.4395H119V8.43945H143.817L147.591 18.4395Z" fill="#FAFAFA"/>
<path d="M178.337 18.4395H162.02V8.43945H178.337V18.4395Z" fill="#FAFAFA"/>
<path d="M142.686 5.43945H119V0H140.633L142.686 5.43945Z" fill="#FAFAFA"/>
<path d="M178.337 5.43945H162.02V0H178.337V5.43945Z" fill="#FAFAFA"/>
<path d="M109.271 73.4395C107.415 74.895 105.254 76.134 102.785 77.1504C98.1701 79.0499 92.6895 80 86.3438 80H56.1807V73.4395H109.271Z" fill="#FAFAFA"/>
<path d="M74.1055 66.7393H85.6016C89.6396 66.7393 92.8126 65.79 95.1201 63.8906C96.2895 62.928 97.1625 61.7773 97.7393 60.4395H116.983C116.489 63.6609 115.3 66.5645 113.416 69.1504C113.097 69.5929 112.76 70.0224 112.406 70.4395H56.1807V60.4395H74.1055V66.7393Z" fill="#FAFAFA"/>
<path d="M74.1055 57.4395H56.1807V47.4395H74.1055V57.4395Z" fill="#FAFAFA"/>
<path d="M114.748 47.4395C116.413 50.0546 117.248 53.1992 117.248 56.877C117.248 57.0654 117.245 57.2529 117.241 57.4395H98.5029C98.5532 56.9754 98.582 56.4959 98.582 56C98.582 52.6393 97.4277 50.0089 95.1201 48.1094C94.842 47.8717 94.5513 47.6485 94.248 47.4395H114.748Z" fill="#FAFAFA"/>
<path d="M107.529 34.4395C106.743 34.9518 105.904 35.4189 105.01 35.8359C101.961 37.297 98.623 38.0273 94.9971 38.0273V38.3564C99.0352 38.2834 102.703 38.941 105.999 40.3291C108.446 41.3346 110.546 42.7057 112.302 44.4395H56.1807V34.4395H107.529Z" fill="#FAFAFA"/>
<path d="M74.1055 31.4395H56.1807V21.4395H74.1055V31.4395Z" fill="#FAFAFA"/>
<path d="M115.244 21.4395C115.087 24.5547 114.15 27.3074 112.427 29.6982C112.005 30.3107 111.545 30.8904 111.052 31.4395H90.3047C91.5286 31.0246 92.5986 30.4446 93.5137 29.6982C95.5738 27.9448 96.6045 25.6068 96.6045 22.6846C96.6045 22.2552 96.5804 21.8403 96.5381 21.4395H115.244Z" fill="#FAFAFA"/>
<path d="M110.549 8.43945C113.234 11.2191 114.773 14.5518 115.167 18.4395H95.6992C95.1875 17.4071 94.4608 16.5202 93.5137 15.7812C91.4534 14.1009 88.6095 13.2607 84.9834 13.2607H74.1055V18.4395H56.1807V8.43945H110.549Z" fill="#FAFAFA"/>
<path d="M85.2314 0C94.2546 4.92161e-05 101.473 1.81414 106.888 5.43945H56.1807V0H85.2314Z" fill="#FAFAFA"/>
</svg>
